<?xml version="1.0" standalone="yes"?>
<svg xmlns="http://www.w3.org/2000/svg" width="512" height="512">
<path style="fill:#000000; stroke:none;" d="M0 0L0 263C2.47417 260.742 4.79472 257.967 8.00077 256.742C14.2292 254.363 23.3944 256 30 256C29.9593 241.239 25.632 226.719 25 212L49 213L71 212C69.1519 226.623 67.6919 241.509 65 256L101 256L101 285C103.989 283.84 108.898 282.759 110.397 279.606C112.445 275.298 111 267.694 111 263L111 224L111 116C111 93.0449 109.552 70.5203 123.924 51C135.169 35.7278 152.054 24.7513 171 22.2894C183.643 20.6465 197.254 22 210 22L289 22C308.12 22 330.452 18.8435 349 23.9205C367.668 29.0303 383.534 42.006 392.691 59C405.674 83.0941 401 114.615 401 141L401 308C404.075 307.269 408.12 306.478 409.972 303.606C412.173 300.194 411 293.885 411 290L411 256L483 256C493.328 256 504.247 253.645 511 263C513.802 256.322 512 246.216 512 239L512 185L512 0L0 0z"/>
<path style="fill:#00aa00; stroke:none;" d="M101 285L101 256L65 256C68.3427 241.999 69.8671 226.354 71 212L48 213L25 212C25.3041 226.731 29.8779 241.256 30 256C22.7176 256 10.0733 253.556 4.1088 258.434C0.0706892 261.736 0.00801641 266.205 0 271C-0.0128099 278.662 -0.126906 286.339 0.00462963 294C0.0732282 297.995 0.756059 301.6 4.18904 304.11C9.3217 307.863 17.0208 307 23 307L63 307L63 407L77 407C77 415.3 76.4198 424.097 79.4684 432C87.0099 451.551 106.041 453 124 453L172 453L172 490L339 490L339 453L385 453C404.487 453 425.535 452.02 432.895 430C434.495 425.214 434 419.974 434 415L449 415L449 307L488 307C494.021 307 501.48 307.894 506.906 304.697C509.788 302.999 511.435 300.275 511.867 296.999C513.104 287.603 513.473 274.323 511.772 265C511.157 261.635 509.041 258.757 505.985 257.179C498.896 253.52 485.846 256 478 256L411 256L411 289C411 293.041 412.113 299.173 409.972 302.786C408.151 305.861 404.159 306.922 401 308L401 140C401 113.615 405.674 82.0941 392.691 58C383.582 41.0953 367.703 28.3481 349 23.6651C330.6 19.0581 308.889 22 290 22L207 22C194.902 22 182.001 20.7299 170 22.2894C151.588 24.682 134.89 35.1118 123.924 50C109.55 69.5169 111 92.0474 111 115L111 222L111 263C111 267.559 112.535 275.631 109.972 279.606C108.166 282.409 103.818 283.497 101 285M45 192L51 192C51 184.6 49.8087 176.079 52.2431 169C53.2036 166.207 56.8787 160.525 54.8827 157.623C51.7646 153.089 47.9415 162.128 47.2045 164C43.7508 172.771 45 182.728 45 192z"/>
<path style="fill:#000000; stroke:none;" d="M52 157L52 159L54 159C53.455 157.365 53.6351 157.545 52 157M0 300L0 512L512 512L512 300C502.52 307.659 493.731 307 482 307L449 307L449 415L434 415C434 419.295 434.397 423.824 433.211 428C429.864 439.795 419.64 448.692 408 451.841C400.044 453.993 391.173 453 383 453L339 453L339 490L172 490L172 453L128 453C108.642 453 87.7137 452.375 79.4684 431C76.5362 423.398 77 414.987 77 407L63 407L63 307L30 307C18.2685 307 9.47967 307.659 0 300M112 344L112 353L400 353L400 344L112 344z"/>
</svg>
